<mxfile host="app.diagrams.net" modified="2024-04-06T11:25:53.436Z" agent="Mozilla/5.0 (X11; Linux x86_64) AppleWebKit/537.36 (KHTML, like Gecko) Chrome/123.0.0.0 Safari/537.36" etag="7pnPdJ_viBDCAFstiFaW" version="24.2.2" type="device">
  <diagram name="Page-1" id="ghv2TMpvsyqbmzGsZPGE">
    <mxGraphModel dx="1501" dy="861" grid="0" gridSize="10" guides="1" tooltips="1" connect="1" arrows="1" fold="1" page="0" pageScale="1" pageWidth="827" pageHeight="1169" math="0" shadow="0">
      <root>
        <mxCell id="0" />
        <mxCell id="1" parent="0" />
        <mxCell id="Sah-l1Yqlrl6mJX4LRue-25" value="" style="ellipse;whiteSpace=wrap;html=1;aspect=fixed;" vertex="1" parent="1">
          <mxGeometry x="940" y="669" width="80" height="80" as="geometry" />
        </mxCell>
        <mxCell id="Sah-l1Yqlrl6mJX4LRue-26" value="" style="endArrow=classic;html=1;rounded=0;entryX=0;entryY=0;entryDx=0;entryDy=0;" edge="1" parent="1" target="Sah-l1Yqlrl6mJX4LRue-25">
          <mxGeometry width="50" height="50" relative="1" as="geometry">
            <mxPoint x="902" y="629" as="sourcePoint" />
            <mxPoint x="1021" y="734" as="targetPoint" />
          </mxGeometry>
        </mxCell>
        <mxCell id="Sah-l1Yqlrl6mJX4LRue-30" value="" style="ellipse;whiteSpace=wrap;html=1;aspect=fixed;" vertex="1" parent="1">
          <mxGeometry x="1146" y="669" width="80" height="80" as="geometry" />
        </mxCell>
        <mxCell id="Sah-l1Yqlrl6mJX4LRue-31" value="" style="endArrow=classic;html=1;rounded=0;entryX=0;entryY=0.5;entryDx=0;entryDy=0;exitX=1;exitY=0.5;exitDx=0;exitDy=0;" edge="1" parent="1" target="Sah-l1Yqlrl6mJX4LRue-30" source="Sah-l1Yqlrl6mJX4LRue-25">
          <mxGeometry width="50" height="50" relative="1" as="geometry">
            <mxPoint x="1025" y="701" as="sourcePoint" />
            <mxPoint x="1156" y="744" as="targetPoint" />
          </mxGeometry>
        </mxCell>
        <mxCell id="Sah-l1Yqlrl6mJX4LRue-32" value="/ cli ? route(vroute)" style="text;html=1;align=center;verticalAlign=middle;whiteSpace=wrap;rounded=0;" vertex="1" parent="1">
          <mxGeometry x="1028" y="669" width="110" height="30" as="geometry" />
        </mxCell>
        <mxCell id="Sah-l1Yqlrl6mJX4LRue-33" value="" style="endArrow=classic;html=1;rounded=0;entryX=0;entryY=0.5;entryDx=0;entryDy=0;exitX=1;exitY=0.5;exitDx=0;exitDy=0;" edge="1" parent="1" source="Sah-l1Yqlrl6mJX4LRue-30" target="Sah-l1Yqlrl6mJX4LRue-34">
          <mxGeometry width="50" height="50" relative="1" as="geometry">
            <mxPoint x="1234" y="809" as="sourcePoint" />
            <mxPoint x="1284" y="759" as="targetPoint" />
          </mxGeometry>
        </mxCell>
        <mxCell id="Sah-l1Yqlrl6mJX4LRue-34" value="" style="ellipse;whiteSpace=wrap;html=1;aspect=fixed;" vertex="1" parent="1">
          <mxGeometry x="1435" y="669" width="80" height="80" as="geometry" />
        </mxCell>
        <mxCell id="Sah-l1Yqlrl6mJX4LRue-35" value="[vroute = &quot;/capacite/ofPokemon/:id&quot;] /" style="text;html=1;align=center;verticalAlign=middle;whiteSpace=wrap;rounded=0;" vertex="1" parent="1">
          <mxGeometry x="1229" y="669" width="203" height="30" as="geometry" />
        </mxCell>
        <mxCell id="Sah-l1Yqlrl6mJX4LRue-36" value="" style="ellipse;whiteSpace=wrap;html=1;aspect=fixed;" vertex="1" parent="1">
          <mxGeometry x="1435" y="808" width="80" height="80" as="geometry" />
        </mxCell>
        <mxCell id="Sah-l1Yqlrl6mJX4LRue-37" value="" style="endArrow=classic;html=1;rounded=0;entryX=0.5;entryY=0;entryDx=0;entryDy=0;exitX=0.5;exitY=1;exitDx=0;exitDy=0;" edge="1" parent="1" source="Sah-l1Yqlrl6mJX4LRue-34" target="Sah-l1Yqlrl6mJX4LRue-36">
          <mxGeometry width="50" height="50" relative="1" as="geometry">
            <mxPoint x="1364" y="822" as="sourcePoint" />
            <mxPoint x="1414" y="772" as="targetPoint" />
          </mxGeometry>
        </mxCell>
        <mxCell id="Sah-l1Yqlrl6mJX4LRue-38" value="/ pkmId = route.params.id" style="text;html=1;align=center;verticalAlign=middle;whiteSpace=wrap;rounded=0;" vertex="1" parent="1">
          <mxGeometry x="1481" y="763" width="145" height="30" as="geometry" />
        </mxCell>
        <mxCell id="Sah-l1Yqlrl6mJX4LRue-39" value="" style="ellipse;whiteSpace=wrap;html=1;aspect=fixed;" vertex="1" parent="1">
          <mxGeometry x="1435" y="944" width="80" height="80" as="geometry" />
        </mxCell>
        <mxCell id="Sah-l1Yqlrl6mJX4LRue-40" value="" style="endArrow=classic;html=1;rounded=0;entryX=0.5;entryY=0;entryDx=0;entryDy=0;exitX=0.5;exitY=1;exitDx=0;exitDy=0;" edge="1" parent="1" source="Sah-l1Yqlrl6mJX4LRue-36" target="Sah-l1Yqlrl6mJX4LRue-39">
          <mxGeometry width="50" height="50" relative="1" as="geometry">
            <mxPoint x="1440" y="972" as="sourcePoint" />
            <mxPoint x="1490" y="922" as="targetPoint" />
          </mxGeometry>
        </mxCell>
        <mxCell id="Sah-l1Yqlrl6mJX4LRue-41" value="/ ? response = srv ! route(&quot;pokemon/:id&quot;, pkmId)" style="text;html=1;align=center;verticalAlign=middle;whiteSpace=wrap;rounded=0;" vertex="1" parent="1">
          <mxGeometry x="1481" y="901" width="263" height="30" as="geometry" />
        </mxCell>
        <mxCell id="Sah-l1Yqlrl6mJX4LRue-43" value="" style="endArrow=classic;html=1;rounded=0;entryX=1;entryY=1;entryDx=0;entryDy=0;exitX=0;exitY=0.5;exitDx=0;exitDy=0;" edge="1" parent="1" source="Sah-l1Yqlrl6mJX4LRue-39" target="Sah-l1Yqlrl6mJX4LRue-25">
          <mxGeometry width="50" height="50" relative="1" as="geometry">
            <mxPoint x="1310" y="1024" as="sourcePoint" />
            <mxPoint x="1088.2842712474574" y="899.2842712474574" as="targetPoint" />
          </mxGeometry>
        </mxCell>
        <mxCell id="Sah-l1Yqlrl6mJX4LRue-44" value="[response.code != 200] /&lt;div&gt;cli ! send(404, {message: &#39;Pokemon Not Found&#39;})&lt;/div&gt;" style="text;html=1;align=center;verticalAlign=middle;whiteSpace=wrap;rounded=0;" vertex="1" parent="1">
          <mxGeometry x="1161" y="798" width="271" height="30" as="geometry" />
        </mxCell>
        <mxCell id="Sah-l1Yqlrl6mJX4LRue-50" value="" style="ellipse;whiteSpace=wrap;html=1;aspect=fixed;" vertex="1" parent="1">
          <mxGeometry x="1100" y="901" width="80" height="80" as="geometry" />
        </mxCell>
        <mxCell id="Sah-l1Yqlrl6mJX4LRue-51" value="[response.code == 200] /&lt;div&gt;d = findMovesByPokemon(response.body)&lt;/div&gt;" style="text;html=1;align=center;verticalAlign=middle;whiteSpace=wrap;rounded=0;" vertex="1" parent="1">
          <mxGeometry x="1167" y="994" width="231" height="30" as="geometry" />
        </mxCell>
        <mxCell id="Sah-l1Yqlrl6mJX4LRue-53" value="" style="endArrow=classic;html=1;rounded=0;entryX=1;entryY=0.5;entryDx=0;entryDy=0;exitX=0;exitY=1;exitDx=0;exitDy=0;" edge="1" parent="1" source="Sah-l1Yqlrl6mJX4LRue-39" target="Sah-l1Yqlrl6mJX4LRue-50">
          <mxGeometry width="50" height="50" relative="1" as="geometry">
            <mxPoint x="1310" y="1188" as="sourcePoint" />
            <mxPoint x="1360" y="1138" as="targetPoint" />
          </mxGeometry>
        </mxCell>
        <mxCell id="Sah-l1Yqlrl6mJX4LRue-58" value="" style="endArrow=classic;html=1;rounded=0;entryX=0.5;entryY=1;entryDx=0;entryDy=0;exitX=0;exitY=0;exitDx=0;exitDy=0;" edge="1" parent="1" source="Sah-l1Yqlrl6mJX4LRue-50" target="Sah-l1Yqlrl6mJX4LRue-25">
          <mxGeometry width="50" height="50" relative="1" as="geometry">
            <mxPoint x="1237" y="1055" as="sourcePoint" />
            <mxPoint x="1287" y="1005" as="targetPoint" />
          </mxGeometry>
        </mxCell>
        <mxCell id="Sah-l1Yqlrl6mJX4LRue-59" value="/ cli ! send(200, d)" style="text;html=1;align=center;verticalAlign=middle;whiteSpace=wrap;rounded=0;" vertex="1" parent="1">
          <mxGeometry x="940" y="841" width="115" height="30" as="geometry" />
        </mxCell>
        <mxCell id="Sah-l1Yqlrl6mJX4LRue-60" value="" style="ellipse;whiteSpace=wrap;html=1;aspect=fixed;" vertex="1" parent="1">
          <mxGeometry x="2027" y="798" width="80" height="80" as="geometry" />
        </mxCell>
        <mxCell id="Sah-l1Yqlrl6mJX4LRue-61" value="" style="endArrow=classic;html=1;rounded=0;entryX=0;entryY=0;entryDx=0;entryDy=0;" edge="1" parent="1" target="Sah-l1Yqlrl6mJX4LRue-60">
          <mxGeometry width="50" height="50" relative="1" as="geometry">
            <mxPoint x="1952" y="718" as="sourcePoint" />
            <mxPoint x="1955" y="844" as="targetPoint" />
          </mxGeometry>
        </mxCell>
        <mxCell id="Sah-l1Yqlrl6mJX4LRue-62" value="" style="ellipse;whiteSpace=wrap;html=1;aspect=fixed;" vertex="1" parent="1">
          <mxGeometry x="2493" y="798" width="80" height="80" as="geometry" />
        </mxCell>
        <mxCell id="Sah-l1Yqlrl6mJX4LRue-63" value="" style="endArrow=classic;html=1;rounded=0;entryX=0;entryY=0.5;entryDx=0;entryDy=0;exitX=1;exitY=0.5;exitDx=0;exitDy=0;" edge="1" parent="1" source="Sah-l1Yqlrl6mJX4LRue-60" target="Sah-l1Yqlrl6mJX4LRue-62">
          <mxGeometry width="50" height="50" relative="1" as="geometry">
            <mxPoint x="2054" y="888" as="sourcePoint" />
            <mxPoint x="2104" y="838" as="targetPoint" />
          </mxGeometry>
        </mxCell>
        <mxCell id="Sah-l1Yqlrl6mJX4LRue-66" value="[capacites.length === 0] /&lt;div&gt;? response = srv ! route(&lt;span style=&quot;background-color: initial;&quot;&gt;&quot;/capacite/ofPokemon/:id&quot;, pokemon.id)&lt;/span&gt;&lt;/div&gt;" style="text;html=1;align=center;verticalAlign=middle;whiteSpace=wrap;rounded=0;" vertex="1" parent="1">
          <mxGeometry x="2123" y="800" width="353" height="30" as="geometry" />
        </mxCell>
        <mxCell id="Sah-l1Yqlrl6mJX4LRue-67" value="" style="ellipse;whiteSpace=wrap;html=1;aspect=fixed;" vertex="1" parent="1">
          <mxGeometry x="2259.5" y="897" width="80" height="80" as="geometry" />
        </mxCell>
        <mxCell id="Sah-l1Yqlrl6mJX4LRue-68" value="" style="endArrow=classic;html=1;rounded=0;exitX=0;exitY=1;exitDx=0;exitDy=0;" edge="1" parent="1" source="Sah-l1Yqlrl6mJX4LRue-62" target="Sah-l1Yqlrl6mJX4LRue-67">
          <mxGeometry width="50" height="50" relative="1" as="geometry">
            <mxPoint x="2200" y="964" as="sourcePoint" />
            <mxPoint x="2250" y="914" as="targetPoint" />
          </mxGeometry>
        </mxCell>
        <mxCell id="Sah-l1Yqlrl6mJX4LRue-69" value="[response.code == 200] /&lt;div&gt;setCapacites(response.body)&lt;/div&gt;" style="text;html=1;align=center;verticalAlign=middle;whiteSpace=wrap;rounded=0;" vertex="1" parent="1">
          <mxGeometry x="2389" y="914" width="166" height="30" as="geometry" />
        </mxCell>
        <mxCell id="Sah-l1Yqlrl6mJX4LRue-70" value="" style="ellipse;whiteSpace=wrap;html=1;aspect=fixed;" vertex="1" parent="1">
          <mxGeometry x="2264.5" y="902" width="70" height="70" as="geometry" />
        </mxCell>
      </root>
    </mxGraphModel>
  </diagram>
</mxfile>
